<svg width="211" height="24" viewBox="0 0 211 24" fill="none" xmlns="http://www.w3.org/2000/svg">
<path d="M78.7347 5.5029C78.8472 5.28956 79.1528 5.28956 79.2653 5.5029L81.0707 8.92471C81.1141 9.00699 81.1932 9.06447 81.2849 9.08033L85.0971 9.73994C85.3348 9.78106 85.4292 10.0717 85.2611 10.2446L82.5647 13.019C82.4998 13.0857 82.4696 13.1788 82.4828 13.2708L83.0336 17.1003C83.0679 17.3391 82.8207 17.5187 82.6042 17.4122L79.1324 15.7051C79.0489 15.664 78.9511 15.664 78.8676 15.7051L75.3958 17.4122C75.1793 17.5187 74.9321 17.3391 74.9664 17.1003L75.5172 13.2708C75.5304 13.1788 75.5002 13.0857 75.4353 13.019L72.7389 10.2446C72.5708 10.0717 72.6652 9.78106 72.9029 9.73994L76.7151 9.08033C76.8068 9.06447 76.8859 9.00699 76.9293 8.92471L78.7347 5.5029Z" fill="#D1D1D8"/> 
<path fill-rule="evenodd" clip-rule="evenodd" d="M79.3463 5.65616L79.2653 5.50278C79.1528 5.28944 78.8472 5.28944 78.7347 5.50278L76.9293 8.92459C76.8859 9.00687 76.8068 9.06435 76.7151 9.08021L72.9029 9.73982C72.6652 9.78094 72.5708 10.0715 72.7389 10.2445L75.4354 13.0189C75.5002 13.0856 75.5304 13.1786 75.5172 13.2707L74.9664 17.1002C74.9321 17.3389 75.1793 17.5185 75.3958 17.4121L78.8676 15.705C78.9511 15.6639 79.0489 15.6639 79.1324 15.705L79.3463 15.8101V5.65616Z" fill="#FFC41F"/>
</svg>
